<svg xmlns="http://www.w3.org/2000/svg" width="914.156" height="856.223" viewBox="0 0 914.156 856.223">
  <path id="Path_3448" data-name="Path 3448" d="M341.018,10.723C391.863,20.7,433.77,52.782,480.71,76.716c55.99,28.549,120.3,38.544,162.741,88.217,51.437,60.2,127.791,141.381,98.885,217.978C710.366,467.624,584.786,434.294,520.2,491.516c-46.583,41.274-32.037,149.8-89.428,167.445-57.7,17.734-99.12-68.913-155.18-92.259-50.142-20.882-115.633,5.2-153.908-36.463-38.32-41.716-18.828-114.247-36.331-170.64C62.2,284.994-15.159,223.063,2.633,146.656,19.831,72.8,101.16,40.78,165.628,14.883c56.142-22.553,116.611-15.7,175.39-4.16" transform="translate(911.724 634.857) rotate(163)" fill="none" stroke="#2e398c" stroke-width="4"/>
</svg>
