<svg xmlns="http://www.w3.org/2000/svg" xmlns:xlink="http://www.w3.org/1999/xlink" width="242" height="242" viewBox="0 0 242 242">
  <defs>
    <filter id="Rectangle_8" x="0" y="0" width="242" height="242" filterUnits="userSpaceOnUse">
      <feOffset dx="10" dy="24" input="SourceAlpha"/>
      <feGaussianBlur stdDeviation="27" result="blur"/>
      <feFlood flood-opacity="0.059"/>
      <feComposite operator="in" in2="blur"/>
      <feComposite in="SourceGraphic"/>
    </filter>
  </defs>
  <g id="Group_589" data-name="Group 589" transform="translate(-1096.5 -1011)">
    <g transform="matrix(1, 0, 0, 1, 1096.5, 1011)" filter="url(#Rectangle_8)">
      <rect id="Rectangle_8-2" data-name="Rectangle 8" width="80" height="80" rx="40" transform="translate(71 57)" fill="#fff"/>
    </g>
    <g id="calendar" transform="translate(1185.328 1085.828)">
      <path id="Path_28" data-name="Path 28" d="M2.772,10.565V38.28a2.772,2.772,0,0,0,2.772,2.772H38.8a2.772,2.772,0,0,0,2.772-2.772V10.565ZM5.543,2.25A5.543,5.543,0,0,0,0,7.793V38.28a5.543,5.543,0,0,0,5.543,5.543H38.8a5.543,5.543,0,0,0,5.543-5.543V7.793A5.543,5.543,0,0,0,38.8,2.25Z" transform="translate(0 0.522)" fill="#2b3991" fill-rule="evenodd"/>
      <path id="Path_29" data-name="Path 29" d="M8.136,0A1.386,1.386,0,0,1,9.522,1.386V2.772a1.386,1.386,0,1,1-2.772,0V1.386A1.386,1.386,0,0,1,8.136,0ZM33.08,0a1.386,1.386,0,0,1,1.386,1.386V2.772a1.386,1.386,0,0,1-2.772,0V1.386A1.386,1.386,0,0,1,33.08,0Z" transform="translate(1.565)" fill="#2b3991" fill-rule="evenodd"/>
    </g>
  </g>
</svg>
