<svg xmlns="http://www.w3.org/2000/svg" xmlns:xlink="http://www.w3.org/1999/xlink" width="242" height="242" viewBox="0 0 242 242">
  <defs>
    <filter id="Rectangle_6" x="0" y="0" width="242" height="242" filterUnits="userSpaceOnUse">
      <feOffset dx="10" dy="24" input="SourceAlpha"/>
      <feGaussianBlur stdDeviation="27" result="blur"/>
      <feFlood flood-opacity="0.059"/>
      <feComposite operator="in" in2="blur"/>
      <feComposite in="SourceGraphic"/>
    </filter>
  </defs>
  <g id="Group_587" data-name="Group 587" transform="translate(-171.5 -1011)">
    <g id="Group_3" data-name="Group 3" transform="translate(159.5 1068)">
      <g transform="matrix(1, 0, 0, 1, 12, -57)" filter="url(#Rectangle_6)">
        <rect id="Rectangle_6-2" data-name="Rectangle 6" width="80" height="80" rx="40" transform="translate(71 57)" fill="#fff"/>
      </g>
    </g>
    <path id="handshake-o" d="M4.67,21.794a1.394,1.394,0,0,0,1.362-.778,1.654,1.654,0,0,0,0-1.557,1.394,1.394,0,0,0-1.362-.778,1.394,1.394,0,0,0-1.362.778,1.654,1.654,0,0,0,0,1.557A1.394,1.394,0,0,0,4.67,21.794ZM40.5,20.384l-.937-1.216q-.694-.9-1.009-1.314t-.925-1.192q-.61-.778-1.034-1.289T35.61,14.23q-.562-.632-1.094-1.192l-3.04,3.406A6.337,6.337,0,0,1,26.4,18.682a6.351,6.351,0,0,1-5-2.385,5.946,5.946,0,0,1,.048-7.662l4.306-5.011a4.746,4.746,0,0,0-1.241-.4,7.579,7.579,0,0,0-1.155-.146q-.45-.012-1.375.012T20.8,3.113a5.244,5.244,0,0,0-3.844,1.6L13.111,8.562H9.34V21.794q.121,0,.511-.012t.536,0q.146.012.475.048a1.771,1.771,0,0,1,.5.111q.17.075.425.207a1.787,1.787,0,0,1,.45.328l7.225,7.1q2.8,2.7,5.522,2.7a4.109,4.109,0,0,0,3.04-1.143,3.366,3.366,0,0,0,2.737-.195,3.306,3.306,0,0,0,1.764-2.067A3.852,3.852,0,0,0,35.61,27.8a4.531,4.531,0,0,0,.876-1.107,2.107,2.107,0,0,0,.341-1.228,1.555,1.555,0,0,0,1.046.243,3.491,3.491,0,0,0,1.873-.511,3.1,3.1,0,0,0,1.2-1.289,3.346,3.346,0,0,0-.45-3.528Zm3.867,1.41H46.7V9.34H44.44L40.621,4.961A5.2,5.2,0,0,0,36.51,3.112H32.448A4.451,4.451,0,0,0,28.9,4.742l-5.084,5.912a2.742,2.742,0,0,0-.682,1.824,2.8,2.8,0,0,0,.657,1.824,3.417,3.417,0,0,0,2.676,1.266,3.365,3.365,0,0,0,2.7-1.192l4.7-5.3a1.756,1.756,0,0,1,1.3-.523,1.557,1.557,0,0,1,1.35,2.032q.389.462,1.362,1.532t1.46,1.655q.705.876,2.007,2.565t1.569,2.055a6.594,6.594,0,0,1,1.46,3.406Zm7.005,0a1.394,1.394,0,0,0,1.362-.778,1.654,1.654,0,0,0,0-1.557,1.581,1.581,0,0,0-2.724,0,1.654,1.654,0,0,0,0,1.557A1.394,1.394,0,0,0,51.372,21.794Zm4.67-14.01V23.351a1.579,1.579,0,0,1-1.557,1.557H43.929a6.125,6.125,0,0,1-1.994,2.59,6.5,6.5,0,0,1-3.04,1.253,7.846,7.846,0,0,1-1.958,1.982,6.822,6.822,0,0,1-2.494,1.107A6.779,6.779,0,0,1,31.9,33.821a6.5,6.5,0,0,1-3.126.6,7.412,7.412,0,0,1-3.065.96,7.964,7.964,0,0,1-3.1-.341,12.9,12.9,0,0,1-2.846-1.3,14.148,14.148,0,0,1-2.517-1.971l-6.98-6.859H1.557a1.5,1.5,0,0,1-1.094-.462A1.494,1.494,0,0,1,0,23.351V7.005A1.5,1.5,0,0,1,.462,5.911a1.5,1.5,0,0,1,1.094-.462H11.8q.341-.341,1.143-1.168t1.155-1.168q.353-.341,1.071-.973a7.271,7.271,0,0,1,1.228-.912q.511-.28,1.241-.62A6.009,6.009,0,0,1,19.143.134,9.542,9.542,0,0,1,20.8,0h2.846a7.636,7.636,0,0,1,4.4,1.362A7.636,7.636,0,0,1,32.447,0h4.061a8.808,8.808,0,0,1,1.63.146A9.652,9.652,0,0,1,39.513.5a5.674,5.674,0,0,1,1.255.643q.658.436,1.082.753a9.468,9.468,0,0,1,1.046.96q.623.643.948,1.021t1,1.168q.673.789,1.009,1.182h8.635a1.579,1.579,0,0,1,1.557,1.557Z" transform="translate(251 1091.664)" fill="#2b3991"/>
  </g>
</svg>
