<svg xmlns="http://www.w3.org/2000/svg" xmlns:xlink="http://www.w3.org/1999/xlink" width="811.574" height="136.574" viewBox="0 0 811.574 136.574">
  <defs>
    <filter id="Line_8" x="263.787" y="34.287" width="19" height="53" filterUnits="userSpaceOnUse">
      <feOffset dy="3" input="SourceAlpha"/>
      <feGaussianBlur stdDeviation="3" result="blur"/>
      <feFlood flood-opacity="0.161"/>
      <feComposite operator="in" in2="blur"/>
      <feComposite in="SourceGraphic"/>
    </filter>
    <filter id="Line_9" x="455.787" y="34.287" width="19" height="53" filterUnits="userSpaceOnUse">
      <feOffset dy="3" input="SourceAlpha"/>
      <feGaussianBlur stdDeviation="3" result="blur-2"/>
      <feFlood flood-opacity="0.161"/>
      <feComposite operator="in" in2="blur-2"/>
      <feComposite in="SourceGraphic"/>
    </filter>
  </defs>
  <g id="Group_661" data-name="Group 661" transform="translate(7678.787 9101.787)">
    <g id="Group_382" data-name="Group 382" transform="translate(-7989 -9765)">
      <rect id="Rectangle_2650" data-name="Rectangle 2650" width="754" height="79" rx="39.5" transform="translate(339 692)" fill="rgba(23,23,23,0.42)"/>
      <g id="Group_361" data-name="Group 361" transform="translate(0 27)">
        <rect id="Rectangle_2642" data-name="Rectangle 2642" width="754" height="79" rx="39.5" transform="translate(339 651)" fill="#fff"/>
        <path id="search" d="M19.606,11.982A7.343,7.343,0,0,0,17.368,6.6a7.346,7.346,0,0,0-5.386-2.239A7.341,7.341,0,0,0,6.595,6.595a7.341,7.341,0,0,0-2.238,5.387,7.347,7.347,0,0,0,2.238,5.386,7.342,7.342,0,0,0,5.387,2.238,7.34,7.34,0,0,0,5.386-2.238A7.351,7.351,0,0,0,19.606,11.982Zm8.714,14.16a2.208,2.208,0,0,1-2.178,2.178,2.023,2.023,0,0,1-1.532-.647l-5.838-5.821a11.654,11.654,0,0,1-6.791,2.111,11.77,11.77,0,0,1-4.655-.945A11.731,11.731,0,0,1,.945,16.637a11.939,11.939,0,0,1,0-9.31A11.731,11.731,0,0,1,7.327.945a11.939,11.939,0,0,1,9.31,0,11.731,11.731,0,0,1,6.382,6.382,11.755,11.755,0,0,1,.945,4.655,11.652,11.652,0,0,1-2.111,6.791l5.838,5.838A2.085,2.085,0,0,1,28.32,26.142Z" transform="translate(1027.68 676.34)" fill="#122789"/>
        <text id="Location" transform="translate(395 668)" fill="#080808" font-size="15" font-family="Poppins-Medium, Poppins" font-weight="500"><tspan x="0" y="16">Location</tspan></text>
        <text id="Dates" transform="translate(627 668)" fill="#080808" font-size="15" font-family="Poppins-Medium, Poppins" font-weight="500"><tspan x="0" y="16">Dates</tspan></text>
        <text id="Budget" transform="translate(816 668)" fill="#080808" font-size="15" font-family="Poppins-Medium, Poppins" font-weight="500"><tspan x="0" y="16">Budget</tspan></text>
        <text id="Where_s_the_party_" data-name="Where&apos;s the party?" transform="translate(395 694)" fill="#656565" font-size="16" font-family="Poppins-Regular, Poppins"><tspan x="0" y="17">Where&apos;s the party?</tspan></text>
        <text id="When_is_it_" data-name="When is it?" transform="translate(627 694)" fill="#656565" font-size="16" font-family="Poppins-Regular, Poppins"><tspan x="0" y="17">When is it?</tspan></text>
        <text id="What_s_our_budget_" data-name="What&apos;s our budget?" transform="translate(816 694)" fill="#656565" font-size="16" font-family="Poppins-Regular, Poppins"><tspan x="0" y="17">What&apos;s our budget?</tspan></text>
        <g transform="matrix(1, 0, 0, 1, 310.21, 636.21)" filter="url(#Line_8)">
          <line id="Line_8-2" data-name="Line 8" y2="35" transform="translate(273.29 40.29)" fill="none" stroke="#7f886b" stroke-width="1" opacity="0.246"/>
        </g>
        <g transform="matrix(1, 0, 0, 1, 310.21, 636.21)" filter="url(#Line_9)">
          <line id="Line_9-2" data-name="Line 9" y2="35" transform="translate(465.29 40.29)" fill="none" stroke="#7f886b" stroke-width="1" opacity="0.246"/>
        </g>
      </g>
    </g>
  </g>
</svg>
