<svg xmlns="http://www.w3.org/2000/svg" xmlns:xlink="http://www.w3.org/1999/xlink" width="199.537" height="56.652" viewBox="0 0 199.537 56.652">
  <defs>
    <clipPath id="clip-path">
      <rect id="Rectangle_2651" data-name="Rectangle 2651" width="199.537" height="56.652" fill="#2b3991"/>
    </clipPath>
  </defs>
  <g id="Group_667" data-name="Group 667" transform="translate(7635.016 9719.557)">
    <g id="Group_494" data-name="Group 494" transform="translate(-7291.405 -10149.557)">
      <g id="Group_363" data-name="Group 363" transform="translate(-343.611 430)" clip-path="url(#clip-path)">
        <text id="OpenSpace" transform="translate(55.959 35.283)" fill="#2b3991" font-size="20" font-family="Poppins-Medium, Poppins" font-weight="500"><tspan x="0" y="0">OpenSpace</tspan></text>
        <path id="Path_3402" data-name="Path 3402" d="M21,0A21.024,21.024,0,0,0,0,21V56.652H42V21A21.024,21.024,0,0,0,21,0M40.344,55H1.656V21a19.344,19.344,0,0,1,38.688,0Z" fill="#2b3991"/>
        <path id="Path_3403" data-name="Path 3403" d="M29.859,15.267a16.82,16.82,0,0,0-16.8,16.8V62.621h33.6V32.068a16.82,16.82,0,0,0-16.8-16.8M44.964,30.974H36.606a6.56,6.56,0,0,0-1.715-3.653L40.7,21.507a15.079,15.079,0,0,1,4.26,9.467M30.9,16.959a15.066,15.066,0,0,1,8.587,3.425l-5.87,5.87a6.58,6.58,0,0,0-2.717-.986Zm-.828,9.913a4.937,4.937,0,0,1,4.86,4.1H25.215a4.934,4.934,0,0,1,4.858-4.1m-.828-9.935v8.332a6.555,6.555,0,0,0-2.971,1.158l-6.044-6.042a15.057,15.057,0,0,1,9.014-3.448M19.014,21.507l6.038,6.04a6.57,6.57,0,0,0-1.512,3.427H14.754a15.081,15.081,0,0,1,4.26-9.467m7.808,39.455V47.538a3.038,3.038,0,1,1,6.075,0V60.962Zm18.183,0H34.552V47.538a4.693,4.693,0,0,0-9.386,0V60.965H14.714V41.2H45Zm0-21.421H14.714V32.629H45Z" transform="translate(-8.859 -10.358)" fill="#2b3991"/>
      </g>
    </g>
  </g>
</svg>
