<svg xmlns="http://www.w3.org/2000/svg" width="34" height="35" viewBox="0 0 34 35">
  <g id="phoneLogo" transform="translate(-0.499 -0.094)">
    <rect id="Area_SIZE:MEDIUM_STATE:DEFAULT_STYLE:STYLE3_" data-name="Area [SIZE:MEDIUM][STATE:DEFAULT][STYLE:STYLE3]" width="34" height="35" rx="17" transform="translate(0.499 0.094)" fill="#fff"/>
    <g id="Icon_ICON_feather_phone_SIZE_MEDIUM_STATE_DEFAULT_STYLE_STYLE3_" data-name="Icon [ICON=feather/phone][SIZE=MEDIUM][STATE=DEFAULT][STYLE=STYLE3]" transform="translate(10.135 10.121)">
      <rect id="Area_ICON:feather_phone_SIZE:MEDIUM_STATE:DEFAULT_STYLE:STYLE3_" data-name="Area [ICON:feather/phone][SIZE:MEDIUM][STATE:DEFAULT][STYLE:STYLE3]" width="14" height="14" transform="translate(0.363 -0.027)" fill="#2b3991" opacity="0"/>
      <g id="Icon" transform="translate(0)">
        <path id="_2e08de7d-c7cd-428c-884d-d81563894d8a" data-name="2e08de7d-c7cd-428c-884d-d81563894d8a" d="M16.549,12.832v2.177a1.451,1.451,0,0,1-1.582,1.451,14.367,14.367,0,0,1-6.261-2.227A14.147,14.147,0,0,1,4.353,9.879a14.354,14.354,0,0,1-2.227-6.29A1.45,1.45,0,0,1,3.569,2.007H5.746A1.451,1.451,0,0,1,7.2,3.255,9.349,9.349,0,0,0,7.7,5.294a1.45,1.45,0,0,1-.326,1.53l-.922.922A11.607,11.607,0,0,0,10.81,12.1l.921-.921a1.451,1.451,0,0,1,1.531-.327,9.3,9.3,0,0,0,2.039.508A1.45,1.45,0,0,1,16.549,12.832Z" transform="translate(-2.12 -2.007)" fill="#2b3991"/>
      </g>
    </g>
  </g>
</svg>
