<svg xmlns="http://www.w3.org/2000/svg" width="28.32" height="28.32" viewBox="0 0 28.32 28.32">
  <path id="search" d="M19.606,11.982A7.343,7.343,0,0,0,17.368,6.6a7.346,7.346,0,0,0-5.386-2.239A7.341,7.341,0,0,0,6.595,6.595a7.341,7.341,0,0,0-2.238,5.387,7.347,7.347,0,0,0,2.238,5.386,7.342,7.342,0,0,0,5.387,2.238,7.34,7.34,0,0,0,5.386-2.238A7.351,7.351,0,0,0,19.606,11.982Zm8.714,14.16a2.208,2.208,0,0,1-2.178,2.178,2.023,2.023,0,0,1-1.532-.647l-5.838-5.821a11.654,11.654,0,0,1-6.791,2.111,11.77,11.77,0,0,1-4.655-.945A11.731,11.731,0,0,1,.945,16.637a11.939,11.939,0,0,1,0-9.31A11.731,11.731,0,0,1,7.327.945a11.939,11.939,0,0,1,9.31,0,11.731,11.731,0,0,1,6.382,6.382,11.755,11.755,0,0,1,.945,4.655,11.652,11.652,0,0,1-2.111,6.791l5.838,5.838A2.085,2.085,0,0,1,28.32,26.142Z" fill="#122789"/>
</svg>
